<?xml version="1.0" encoding="utf-8"?>
<!-- Generator: Adobe Illustrator 28.1.0, SVG Export Plug-In . SVG Version: 6.00 Build 0)  -->
<svg version="1.1" id="Layer_1" xmlns="http://www.w3.org/2000/svg" xmlns:xlink="http://www.w3.org/1999/xlink" x="0px" y="0px"
	 viewBox="0 0 492 91" style="enable-background:new 0 0 492 91;" xml:space="preserve">
<path d="M102.9,67.2v-7.6c4.7-1.6,8.1-6.6,8.1-12.5s-3.4-10.9-8.1-12.5V27c4.4-1.5,7.7-6,8-11.5h-5.3v2.3c0,1.8-1.1,3.4-2.7,4.1V21
	c0-1.6-1.4-2.9-3.1-2.9h-0.3c-1.7,0-3.1,1.3-3.1,2.9v1.1c-1.6-0.8-2.7-2.3-2.7-4.1v-2.3h-5.3c0.4,5.4,3.6,10,8,11.5v7.6
	c-4.7,1.6-8.1,6.6-8.1,12.5s3.4,10.9,8.1,12.5v7.6c-4.4,1.5-7.7,6-8,11.5h5.3v-2.3c0-1.8,1.1-3.4,2.7-4.1v1.1c0,1.6,1.4,2.9,3.1,2.9
	h0.3c1.7,0,3.1-1.3,3.1-2.9v-1.1c1.6,0.8,2.7,2.3,2.7,4.1v2.3h5.3C110.6,73.2,107.3,68.7,102.9,67.2z M93.7,50.4v-6.6
	c0-1.8,1.1-3.4,2.7-4.1v1.1c0,1.6,1.4,2.9,3.1,2.9h0.3c1.7,0,3.1-1.3,3.1-2.9v-1.1c1.6,0.8,2.7,2.3,2.7,4.1v6.6
	c0,1.8-1.1,3.4-2.7,4.1v-1.1c0-1.6-1.4-2.9-3.1-2.9h-0.3c-1.7,0-3.1,1.3-3.1,2.9v1.1C94.8,53.8,93.7,52.2,93.7,50.4z"/>
<path d="M135.7,51.1V43c4.7-1.6,8.1-6.6,8.1-12.5s-3.4-10.9-8.1-12.5v-2.5h-6.4V18c-4.7,1.6-8.1,6.6-8.1,12.5s3.4,10.9,8.1,12.5v8.1
	c-4.7,1.6-8.1,6.6-8.1,12.5s3.4,10.9,8.1,12.5v2.5h6.4v-2.5c4.7-1.6,8.1-6.6,8.1-12.5S140.4,52.7,135.7,51.1z M126.6,33.9v-6.6
	c0-1.8,1.1-3.4,2.7-4.1v1.1c0,1.6,1.4,2.9,3.1,2.9h0.3c1.7,0,3.1-1.3,3.1-2.9v-1.1c1.6,0.8,2.7,2.3,2.7,4.1v6.6
	c0,1.8-1.1,3.4-2.7,4.1v-1c0-1.6-1.4-2.9-3.1-2.9h-0.3c-1.7,0-3.1,1.3-3.1,2.9v1.1C127.7,37.3,126.6,35.7,126.6,33.9z M138.4,66.9
	c0,1.8-1.1,3.4-2.7,4.1v-1.6c0-1.6-1.4-2.9-3.1-2.9h-0.3c-1.7,0-3.1,1.3-3.1,2.9V71c-1.6-0.8-2.7-2.3-2.7-4.1v-6.6
	c0-1.8,1.1-3.4,2.7-4.1v0.6c0,1.6,1.4,2.9,3.1,2.9h0.3c1.7,0,3.1-1.3,3.1-2.9v-0.6c1.6,0.8,2.7,2.3,2.7,4.1V66.9L138.4,66.9z"/>
<path d="M65.9,40.7c-0.1-0.3-0.1-0.6-0.3-0.9c0-0.1,10.1-13.1,0.8-21.1s-20.1,2.4-20.2,2.5c-1.7-0.5-3.5-0.8-5.2-1l0,0
	c-3.5-0.5-8.5,0-8.5,0c-1.7,0.1-3.4,0.4-5.1,0.9C27.3,21,16.5,10.6,7.2,18.6s0.7,21,0.8,21.1c-0.1,0.3-0.2,0.6-0.3,0.9
	c-1,5.6-7.8,7.3-7.8,17c0,9.9,7.1,17.7,21.7,17.7h6c0,0,2.3,3.1,7.1,3.3c0,0,1.1,0.1,3.6,0c5.1,0,7.5-3.2,7.5-3.3h6
	c14.6,0,21.7-7.8,21.7-17.7C73.8,48,66.9,46.2,65.9,40.7z"/>
<path d="M170,72V23h20.4c3.1,0,5.8,0.5,7.9,1.4c2.1,0.9,3.8,2.3,4.8,4.2c1.1,1.8,1.7,4.1,1.7,6.7s-0.7,4.9-2.2,6.8
	c-1.4,1.9-3.5,3.1-6.1,3.8v-1.4c2.2,0.5,4.1,1.3,5.7,2.5c1.6,1.2,2.9,2.6,3.8,4.4c0.9,1.8,1.4,3.8,1.4,6.1s-0.4,4.4-1.1,6.2
	c-0.7,1.8-1.8,3.3-3.2,4.5S200,70.3,198,71c-2,0.6-4.3,0.9-6.9,0.9L170,72L170,72z M177.6,64.7h13.2c1.9,0,3.5-0.3,4.8-0.8
	c1.4-0.6,2.4-1.4,3.1-2.5c0.7-1.1,1.1-2.5,1.1-4c0-1.4-0.4-2.7-1.2-3.7c-0.7-1-1.8-1.8-3.2-2.3c-1.4-0.6-3.1-0.8-5-0.8h-12.8
	L177.6,64.7L177.6,64.7z M177.6,43.3H190c1.4,0,2.6-0.3,3.7-0.8c1.1-0.6,2-1.3,2.6-2.3c0.7-1,1-2.1,1-3.4c0-2.1-0.7-3.7-2.1-4.8
	c-1.4-1.1-3.4-1.7-6-1.7h-11.6L177.6,43.3L177.6,43.3z M230.8,72.7c-3.8,0-7.1-0.8-10.1-2.4c-2.9-1.6-5.2-3.8-6.9-6.7
	c-1.6-2.8-2.4-6-2.4-9.7c0-2.9,0.5-5.5,1.4-7.9s2.2-4.4,3.9-6.2s3.7-3.1,5.9-4.1c2.3-1,4.9-1.5,7.6-1.5c2.4,0,4.6,0.5,6.6,1.4
	c2.1,0.9,3.8,2.1,5.3,3.7c1.5,1.6,2.7,3.5,3.5,5.7c0.8,2.1,1.2,4.5,1.2,7.1l-0.1,3.1h-30l-1.6-5.7h25.4l-1.1,1.2V49
	c-0.1-1.5-0.7-2.9-1.5-4.1c-0.9-1.2-2-2.2-3.4-2.9s-2.8-1-4.4-1c-2.5,0-4.6,0.5-6.4,1.5c-1.7,0.9-3,2.3-3.9,4.2
	c-0.9,1.8-1.3,4.1-1.3,6.8c0,2.6,0.5,4.8,1.6,6.7s2.6,3.3,4.5,4.3c2,1,4.2,1.5,6.8,1.5c1.8,0,3.5-0.3,5-0.9c1.6-0.6,3.3-1.7,5.1-3.3
	l3.6,5.1c-1.1,1.1-2.5,2.1-4.1,2.9s-3.3,1.5-5.1,2C234.3,72.5,232.5,72.7,230.8,72.7z M252.6,72V35.2h7.3v11.5l-0.7-2.8
	c0.5-1.8,1.4-3.4,2.6-4.8c1.3-1.4,2.7-2.6,4.3-3.4c1.6-0.8,3.3-1.3,5-1.3c0.8,0,1.5,0.1,2.2,0.2c0.7,0.1,1.3,0.3,1.8,0.5l-1.9,7.8
	c-0.6-0.2-1.2-0.4-1.9-0.6c-0.7-0.2-1.3-0.3-2-0.3c-1.3,0-2.5,0.3-3.6,0.8s-2.1,1.1-3,2c-0.8,0.8-1.5,1.8-2,3
	c-0.5,1.1-0.8,2.4-0.8,3.7V72H252.6z M291.3,72.7c-3,0-5.8-0.8-8.3-2.5s-4.5-4-6-6.9s-2.2-6.2-2.2-9.8c0-3.7,0.7-7,2.2-9.8
	c1.5-2.9,3.6-5.2,6.2-6.8s5.5-2.5,8.8-2.5c1.9,0,3.7,0.3,5.2,0.8c1.6,0.6,3,1.4,4.1,2.4c1.2,1,2.2,2.1,2.9,3.4
	c0.8,1.3,1.3,2.7,1.5,4.2l-1.6-0.6v-9.5h7.3V72h-7.3v-8.8l1.7-0.5c-0.3,1.3-0.9,2.5-1.8,3.7c-0.8,1.2-1.9,2.2-3.3,3.2
	c-1.3,0.9-2.8,1.7-4.4,2.2C294.7,72.4,293.1,72.7,291.3,72.7z M293.2,66.1c2.2,0,4.1-0.5,5.8-1.6c1.7-1.1,3-2.5,3.9-4.4
	c1-1.9,1.5-4.1,1.5-6.5s-0.5-4.5-1.5-6.4c-0.9-1.9-2.2-3.3-3.9-4.4c-1.7-1.1-3.6-1.6-5.8-1.6c-2.1,0-4.1,0.5-5.7,1.6
	s-2.9,2.5-3.9,4.4c-0.9,1.9-1.4,4-1.4,6.4s0.5,4.6,1.4,6.5c1,1.9,2.3,3.3,3.9,4.4C289.1,65.5,291,66.1,293.2,66.1z M335,72.7
	c-3.4,0-6.5-0.8-9.2-2.5s-4.8-4-6.4-6.9c-1.5-2.9-2.3-6.1-2.3-9.7s0.8-6.8,2.3-9.7c1.6-2.9,3.7-5.2,6.4-6.9c2.7-1.7,5.8-2.5,9.2-2.5
	c3.3,0,6.2,0.7,8.9,2c2.7,1.3,4.8,3.1,6.2,5.4l-4,4.9c-0.7-1.1-1.7-2.1-2.9-2.9c-1.2-0.9-2.4-1.6-3.7-2.1c-1.3-0.5-2.6-0.8-3.8-0.8
	c-2.2,0-4.2,0.6-6,1.7c-1.7,1.1-3.1,2.6-4.1,4.5s-1.5,4.1-1.5,6.4s0.5,4.5,1.6,6.4s2.5,3.4,4.3,4.5s3.7,1.7,5.9,1.7
	c1.3,0,2.5-0.2,3.6-0.6c1.2-0.4,2.4-1,3.5-1.9c1.1-0.8,2.2-1.9,3.2-3.1l4,4.9c-1.5,2.1-3.6,3.8-6.4,5.2
	C340.8,72,337.9,72.7,335,72.7z M354.7,72V20.2h7.2v22.6l-1.3,0.8c0.5-1.6,1.4-3.1,2.7-4.5c1.4-1.4,3-2.5,4.8-3.4
	c1.9-0.9,3.8-1.3,5.7-1.3c2.8,0,5.1,0.6,7,1.7c1.9,1.1,3.3,2.7,4.2,5c0.9,2.2,1.4,5.1,1.4,8.5V72h-7.2V50.1c0-2.1-0.3-3.8-0.8-5.2
	c-0.6-1.4-1.4-2.4-2.6-3c-1.2-0.7-2.6-0.9-4.3-0.8c-1.4,0-2.7,0.2-3.8,0.7c-1.2,0.4-2.2,1-3.1,1.8c-0.8,0.8-1.5,1.7-2,2.8
	c-0.5,1-0.7,2.1-0.7,3.4V72h-3.6c-0.6,0-1.2,0-1.8,0C355.9,72,355.3,72,354.7,72z M408.4,72.7c-3,0-5.8-0.8-8.3-2.5s-4.5-4-5.9-6.9
	c-1.5-2.9-2.2-6.2-2.2-9.8c0-3.7,0.7-7,2.2-9.8c1.5-2.9,3.6-5.2,6.2-6.8s5.5-2.5,8.8-2.5c1.9,0,3.7,0.3,5.2,0.8
	c1.6,0.6,3,1.4,4.1,2.4c1.2,1,2.2,2.1,2.9,3.4c0.8,1.3,1.3,2.7,1.5,4.2l-1.6-0.6v-9.5h7.3V72h-7.3v-8.8l1.7-0.5
	c-0.3,1.3-0.9,2.5-1.8,3.7c-0.8,1.2-1.9,2.2-3.3,3.2c-1.3,0.9-2.8,1.7-4.4,2.2C411.8,72.4,410.1,72.7,408.4,72.7z M410.3,66.1
	c2.2,0,4.1-0.5,5.8-1.6c1.7-1.1,3-2.5,3.9-4.4c1-1.9,1.5-4.1,1.5-6.5s-0.5-4.5-1.5-6.4c-0.9-1.9-2.2-3.3-3.9-4.4
	c-1.7-1.1-3.6-1.6-5.8-1.6c-2.1,0-4.1,0.5-5.7,1.6s-2.9,2.5-3.9,4.4c-0.9,1.9-1.4,4-1.4,6.4s0.5,4.6,1.4,6.5c1,1.9,2.3,3.3,3.9,4.4
	C406.2,65.5,408.1,66.1,410.3,66.1z M437.6,72V35.2h7.2V72H437.6z M441.1,27.1c-1.5,0-2.7-0.4-3.6-1.2c-0.8-0.8-1.3-1.9-1.3-3.4
	c0-1.4,0.4-2.5,1.3-3.3s2.1-1.3,3.6-1.3s2.7,0.4,3.6,1.2c0.8,0.8,1.3,1.9,1.3,3.4c0,1.4-0.4,2.5-1.3,3.3
	C443.8,26.7,442.6,27.1,441.1,27.1z M453.8,72V35.2h7.2v7.6l-1.3,0.8c0.5-1.6,1.4-3.1,2.7-4.5c1.4-1.4,3-2.5,4.8-3.4
	c1.9-0.9,3.8-1.3,5.7-1.3c2.8,0,5.1,0.6,7,1.7c1.9,1.1,3.3,2.7,4.2,5c0.9,2.2,1.4,5.1,1.4,8.5V72h-7.2V50.1c0-2.1-0.3-3.8-0.8-5.2
	c-0.6-1.4-1.4-2.4-2.6-3c-1.2-0.7-2.6-0.9-4.3-0.8c-1.4,0-2.7,0.2-3.9,0.7c-1.2,0.4-2.2,1-3.1,1.8c-0.8,0.8-1.5,1.7-2,2.8
	c-0.5,1-0.7,2.1-0.7,3.4V72h-3.6c-0.6,0-1.2,0-1.8,0C455,72,454.4,72,453.8,72z"/>
</svg>
