<?xml version="1.0" encoding="UTF-8" standalone="no"?>
<svg
   width="200"
   height="200"
   viewBox="0 0 200 200"
   fill="none"
   version="1.1"
   id="svg1"
   sodipodi:docname="Moonbeam_Icon_Purple.svg"
   inkscape:version="1.3.2 (091e20e, 2023-11-25, custom)"
   xmlns:inkscape="http://www.inkscape.org/namespaces/inkscape"
   xmlns:sodipodi="http://sodipodi.sourceforge.net/DTD/sodipodi-0.dtd"
   xmlns="http://www.w3.org/2000/svg"
   xmlns:svg="http://www.w3.org/2000/svg">
  <defs
     id="defs1" />
  <sodipodi:namedview
     id="namedview1"
     pagecolor="#ffffff"
     bordercolor="#000000"
     borderopacity="0.25"
     inkscape:showpageshadow="2"
     inkscape:pageopacity="0.0"
     inkscape:pagecheckerboard="0"
     inkscape:deskcolor="#d1d1d1"
     inkscape:zoom="2.6222528"
     inkscape:cx="-43.47407"
     inkscape:cy="98.198009"
     inkscape:window-width="3745"
     inkscape:window-height="2126"
     inkscape:window-x="84"
     inkscape:window-y="-11"
     inkscape:window-maximized="1"
     inkscape:current-layer="svg1" />
  <path
     d="M 194.97858,99.909334 C 194.97858,47.702931 152.44908,5.38325 99.994593,5.38325 47.540315,5.38325 5,47.702931 5,99.909334 c 0,10.793176 1.8220795,21.159836 5.166137,30.822606 0.02144,0.0426 0.203644,0.59723 0.203644,0.59723 1.350483,4.27667 -5.3483448,5.95129 -5.3483448,8.51093 0,4.01009 14.1264708,3.46609 14.1264708,8.12685 0,4.06353 -13.9764172,5.32204 -13.9764172,9.41738 0,5.66328 30.9432802,3.69026 31.3398392,8.55356 0.30007,3.75411 -10.643241,3.98888 -10.707497,7.99897 -0.107156,6.40981 42.229431,4.3087 42.229431,8.57477 0,3.23173 -19.260435,2.05849 -19.260435,5.87663 0,3.81815 25.348347,6.22849 53.290442,6.22849 27.94209,0 47.21334,-3.09282 47.21334,-6.43124 0,-3.3382 -17.98508,-2.6555 -17.60994,-5.66307 0.64318,-5.25799 40.56812,-2.57045 40.56812,-8.66024 0,-3.21031 -10.97533,-3.95685 -10.62161,-7.41234 0.50365,-4.88472 33.3654,-4.15939 33.3654,-9.23605 0,-3.98887 -16.29155,-4.97018 -16.25932,-9.11876 0.0214,-4.23426 16.25932,-4.05293 16.15223,-8.02039 -0.0859,-3.05019 -7.26698,-2.97554 -5.01615,-9.4388 C 193.17795,121.00513 195,110.67048 195,99.909334 Z m -30.18212,26.844536 c -3.30119,7.43355 -10.7181,5.94048 -11.55426,9.06533 -0.86798,3.23152 9.14268,3.70087 9.14268,7.0817 0,4.10616 -30.51442,2.46378 -30.21435,7.88168 0.19277,3.41285 21.67202,3.98887 21.26464,7.55104 -0.58953,5.16191 -33.27972,2.58106 -33.60121,7.52962 -0.23582,3.62621 15.95924,3.7541 15.99148,7.06049 0.032,2.7836 -12.71171,4.29809 -37.127616,4.29809 -27.802768,0 -41.329012,-1.49328 -39.785616,-4.59671 1.436095,-2.90109 26.055582,-2.3677 25.809162,-6.9326 -0.246627,-4.55387 -43.719177,-3.22071 -45.026759,-7.6469 -1.093396,-3.67945 14.287129,-4.4368 14.190641,-7.93492 -0.09628,-3.56216 -19.689018,-2.75158 -20.117809,-7.07109 -0.278651,-2.82623 10.235869,-2.65572 9.785659,-6.21788 -0.332302,-2.59167 -4.673235,-2.229 -7.245563,-7.57225 -4.147749,-8.92683 -6.484471,-18.86679 -6.484471,-29.350741 0,-38.565579 31.425654,-69.836103 70.182342,-69.836103 38.75668,0 70.18213,31.270524 70.18213,69.836103 0,9.513451 -1.91854,18.578781 -5.38047,26.844331 z"
     fill="white"
     id="path1"
     style="fill:#958fdc;fill-opacity:1;stroke-width:2.07949" />
</svg>
