<?xml version="1.0" encoding="UTF-8"?>
<svg xmlns="http://www.w3.org/2000/svg" width="250" height="250" xml:space="preserve" version="1.1"> <rect width="250" height="250" fill="#000"></rect> <g> <title>Layer 1</title> <g id="svg_19"> <circle id="svg_17" fill="#FF9100" r="26.9" cy="54.15" cx="125.13484" class="st0"></circle> <path id="svg_18" fill="#FF9100" d="m199.73484,137.05c-12.8,-7.4 -29.3,-3 -36.7,9.8c-2.5,4.4 -3.7,9.2 -3.6,14l0,0c0.3,11.9 -10.4,18 -20.5,11.9c-0.4,-0.2 -0.8,-0.5 -1.3,-0.7c-10.2,-5.7 -10.2,-17.9 0,-23.5c8.4,-4.6 14.1,-13.4 14.1,-23.6l0,-0.6l0,0c-0.3,-11.9 10.4,-18 20.5,-11.9l0,0c8.1,5 18.6,5.4 27.3,0.3c12.8,-7.4 17.2,-23.8 9.8,-36.7c-7.3,-12.8 -23.7,-17.2 -36.5,-9.8c-8.8,5.1 -13.6,14.4 -13.4,23.8l0,0c0.3,11.9 -10.4,18 -20.4,11.9c-4.1,-2.5 -8.9,-4 -14,-4s-9.9,1.5 -14,3.9c-10.1,6 -20.7,-0.1 -20.4,-11.9l0,0c0,-9.5 -4.8,-18.7 -13.6,-23.8c-12.8,-7.4 -29.2,-2.9 -36.6,9.9s-2.9,29.3 9.9,36.7c8.8,5.1 19.3,4.6 27.3,-0.3l0,0c10.1,-6.1 20.7,0 20.4,11.9l0,0l0,0.6c0,10.2 5.6,19.1 14.1,23.6c10.2,5.7 10.2,17.9 0,23.5c-0.4,0.2 -0.8,0.5 -1.2,0.7c-10.1,6 -20.7,-0.1 -20.4,-11.9l0,0c0.1,-4.8 -1.1,-9.6 -3.6,-14.1c-7.4,-12.8 -23.8,-17.2 -36.7,-9.8c-12.8,7.6 -17.2,24 -9.8,36.9c7.4,12.8 23.8,17.2 36.7,9.8c0.2,-0.1 0.3,-0.2 0.5,-0.3l0,0c10.1,-6.1 20.7,0 20.4,11.9l0,0l0,0.7c0,14.8 12.1,26.8 26.9,26.8s26.9,-12.1 26.9,-26.9l0,-0.6l0,0c-0.3,-11.9 10.4,-18 20.5,-11.9l0,0c0.2,0.1 0.4,0.2 0.6,0.4c12.8,7.4 29.3,3 36.7,-9.8c7.3,-13 2.9,-29.5 -9.9,-36.9l0,0l0,0z" class="st0"></path> </g> </g> </svg>
