<?xml version="1.0" standalone="no"?>
<!DOCTYPE svg PUBLIC "-//W3C//DTD SVG 1.1//EN" "http://www.w3.org/Graphics/SVG/1.1/DTD/svg11.dtd">
<svg xmlns="http://www.w3.org/2000/svg" width="337" height="57" viewBox="0 0 337 57" fill="none">
<g clip-path="url(#clip0_509_29)">
<path d="M3.09156 35.5474C1.81651 34.2721 0.961417 32.7994 0.526282 31.1294C0.101266 29.4492 0.101265 27.769 0.526282 26.0889C0.961417 24.3986 1.81144 22.9209 3.07637 21.6557C4.36153 20.3703 5.84404 19.515 7.52386 19.0899C9.20369 18.6648 10.8835 18.6648 12.5633 19.0899C14.2432 19.515 15.7206 20.3652 16.9957 21.6405L20.1529 24.7984L24.8281 20.1223L21.6708 16.9644C20.3957 15.6891 19.5406 14.2164 19.1055 12.5464C18.6805 10.8662 18.6755 9.19112 19.0904 7.52109C19.5154 5.84093 20.3705 4.35813 21.6557 3.0727C22.9307 1.7974 24.4081 0.947212 26.088 0.522112C27.7678 0.0970121 29.4425 0.102059 31.1122 0.537281C32.792 0.96238 34.2695 1.8126 35.5446 3.0879C36.8196 4.3632 37.6697 5.84093 38.0947 7.52109C38.5298 9.19112 38.5348 10.8662 38.1098 12.5464C37.6949 14.2367 36.85 15.7195 35.5749 16.9948L32.4328 20.1375L37.0928 24.7984L40.2349 21.6557C41.5099 20.3804 42.9823 19.5251 44.6521 19.0899C46.3319 18.6648 48.0066 18.6698 49.6763 19.1051C51.3561 19.5302 52.8386 20.3855 54.1238 21.6709C55.3989 22.9462 56.2489 24.4239 56.6739 26.1041C57.109 27.7741 57.109 29.4441 56.6739 31.1142C56.2489 32.7943 55.3989 34.2721 54.1238 35.5474C52.8386 36.8328 51.3561 37.6881 49.6763 38.1132C48.0066 38.5281 46.3319 38.5231 44.6521 38.098C42.9925 37.6729 41.5251 36.8227 40.2501 35.5474L37.108 32.4046L32.4328 37.0808L35.5749 40.2235C36.85 41.4988 37.6949 42.9714 38.1098 44.6415C38.5348 46.3216 38.5348 48.0018 38.1098 49.682C37.6848 51.3621 36.8297 52.8449 35.5446 54.1303C34.2797 55.3955 32.8022 56.2457 31.1122 56.6809C29.4324 57.106 27.7526 57.106 26.0728 56.6809C24.4132 56.2558 22.9458 55.4056 21.6708 54.1303C20.3856 52.8449 19.5255 51.3672 19.0904 49.6971C18.6654 48.017 18.6654 46.3368 19.0904 44.6567C19.5356 42.9765 20.3907 41.5038 21.6557 40.2387L24.8281 37.0656L20.1681 32.4046L16.9957 35.5777C15.7307 36.8429 14.2482 37.6881 12.5482 38.1132C10.8683 38.5383 9.18852 38.5383 7.5087 38.1132C5.83899 37.6779 4.36661 36.8227 3.09156 35.5474ZM6.88633 31.7518C7.46314 32.3287 8.13102 32.7134 8.88998 32.9057C9.65906 33.1081 10.4231 33.1132 11.182 32.9209C11.941 32.7285 12.6089 32.3439 13.1857 31.767L16.3581 28.5939L13.2009 25.436C12.624 24.8591 11.9511 24.4796 11.182 24.2974C10.4231 24.1051 9.66413 24.1051 8.90517 24.2974C8.14622 24.4897 7.47326 24.8794 6.88633 25.4664C6.30952 26.0433 5.91994 26.7063 5.71755 27.4553C5.52528 28.2144 5.52528 28.9735 5.71755 29.7326C5.91994 30.5018 6.30952 31.1749 6.88633 31.7518ZM25.4656 13.1688L28.6229 16.3267L31.7649 13.184C32.3519 12.597 32.7364 11.929 32.9186 11.18C33.1109 10.4209 33.1058 9.6567 32.9034 8.88747C32.7111 8.12836 32.3266 7.46035 31.7498 6.88342C31.1729 6.3065 30.5051 5.92189 29.7461 5.72958C28.9871 5.53728 28.2282 5.53728 27.4693 5.72958C26.7204 5.91177 26.0525 6.29638 25.4656 6.88342C24.8888 7.46035 24.4942 8.12836 24.2816 8.88747C24.0894 9.64658 24.0894 10.4057 24.2816 11.1648C24.4942 11.9239 24.8888 12.5919 25.4656 13.1688ZM40.0138 28.6091L43.1559 31.7518C43.7327 32.3287 44.3956 32.7184 45.1444 32.9209C45.9033 33.1132 47.5462 33.1081 48.2951 32.9057C49.054 32.7134 49.7269 32.3237 50.3138 31.7367C50.9008 31.1496 51.2853 30.4816 51.4675 29.7326C51.6699 28.9836 51.6749 28.2296 51.4827 27.4704C51.2904 26.7113 50.9058 26.0433 50.329 25.4664C49.7421 24.8794 49.0692 24.4897 48.3102 24.2974C47.5512 24.1051 45.9033 24.1051 45.1444 24.2974C44.4057 24.4897 43.7428 24.8794 43.1559 25.4664L40.0138 28.6091ZM25.4656 50.3348C26.0424 50.9117 26.7103 51.2963 27.4693 51.4886C28.2282 51.6809 28.9821 51.6759 29.731 51.4734C30.4899 51.2811 31.1578 50.8965 31.7346 50.3196C32.3215 49.7326 32.7111 49.0595 32.9034 48.3004C33.1058 47.5514 33.1109 46.7973 32.9186 46.0382C32.7364 45.269 32.3569 44.5959 31.7801 44.019L28.638 40.8763L25.4656 44.0494C24.8888 44.6263 24.4992 45.2892 24.2968 46.0382C24.1045 46.7973 24.1045 47.5564 24.2968 48.3156C24.4891 49.0747 24.8787 49.7478 25.4656 50.3348ZM23.9629 28.6091L28.6229 33.2701L33.298 28.5939L28.638 23.933L23.9629 28.6091Z" fill="#24201F"/>
</g>
<path d="M92.194 21.792C90.898 17.904 87.496 14.286 82.204 14.286C75.13 14.286 70 20.604 70 29.46C70 38.316 75.076 44.688 82.204 44.688C86.632 44.688 90.52 41.826 92.194 37.83V44.04H98.89V3H92.194V21.792ZM84.634 39.936C79.612 39.936 76.858 35.886 76.858 29.46C76.858 23.088 79.612 19.038 84.634 19.038C89.656 19.038 92.41 23.088 92.41 29.46C92.41 35.886 89.656 39.936 84.634 39.936Z" fill="#24201F"/>
<path d="M115.925 39.936L107.069 14.934H100.265L109.607 40.908H115.601L111.335 54.624H118.301L130.775 14.934H123.701L115.925 39.936Z" fill="#24201F"/>
<path d="M166.257 14.286C161.073 14.286 158.265 17.904 157.077 21.468C155.997 17.742 153.081 14.286 148.059 14.286C143.145 14.286 140.499 17.418 139.203 20.928V14.934H132.507V44.04H139.257V27.138C139.257 21.576 141.201 19.092 145.035 19.092C148.815 19.092 150.759 21.576 150.759 27.03V44.04H157.509V27.138C157.509 21.576 159.453 19.092 163.287 19.092C167.067 19.092 169.011 21.576 169.011 27.03V44.04H175.761V25.734C175.761 19.092 172.737 14.286 166.257 14.286Z" fill="#24201F"/>
<path d="M207.323 29.298C207.323 20.226 201.707 14.286 193.121 14.286C184.373 14.286 178.811 20.55 178.811 29.46C178.811 38.316 184.211 44.688 193.121 44.688C199.925 44.688 204.839 41.664 206.675 35.454H199.817C198.791 38.262 196.901 39.936 193.175 39.936C189.071 39.936 186.209 37.074 185.669 31.458H207.161C207.269 30.702 207.323 29.946 207.323 29.298ZM193.121 19.038C197.279 19.038 200.087 22.116 200.411 26.76H185.723C186.425 21.522 189.179 19.038 193.121 19.038Z" fill="#24201F"/>
<path d="M226.516 14.286C221.494 14.286 218.632 17.31 217.282 20.874V14.934H210.586V44.04H217.336V27.138C217.336 21.576 219.712 19.092 223.492 19.092C227.326 19.092 229.648 21.522 229.648 27.03V44.04H236.398V25.734C236.398 19.254 233.212 14.286 226.516 14.286Z" fill="#24201F"/>
<path d="M252.016 44.688C259.468 44.688 264.922 41.34 264.922 35.562C264.922 30.918 262.276 28.218 256.174 26.922L251.584 25.95C248.074 25.194 246.292 24.492 246.292 22.494C246.292 20.28 248.938 19.038 251.854 19.038C254.446 19.038 256.822 20.226 257.578 22.386H264.382C263.14 16.986 257.956 14.286 251.8 14.286C245.158 14.286 239.758 17.688 239.758 23.034C239.758 27.462 242.998 29.892 248.29 31.026L252.88 32.052C257.092 32.916 258.442 33.996 258.442 36.21C258.442 38.478 256.282 39.936 252.178 39.936C249.424 39.936 246.616 38.91 245.914 35.4H239.11C239.974 41.556 245.212 44.688 252.016 44.688Z" fill="#24201F"/>
<path d="M275.01 10.452V3H267.936V10.452H275.01ZM274.848 44.04V14.934H268.098V44.04H274.848Z" fill="#24201F"/>
<path d="M292.807 44.688C301.825 44.688 307.495 38.478 307.495 29.46C307.495 20.496 301.825 14.286 292.807 14.286C283.843 14.286 278.173 20.496 278.173 29.46C278.173 38.478 283.843 44.688 292.807 44.688ZM292.807 39.936C287.839 39.936 285.031 35.886 285.031 29.46C285.031 23.088 287.839 19.038 292.807 19.038C297.829 19.038 300.583 23.088 300.583 29.46C300.583 35.886 297.829 39.936 292.807 39.936Z" fill="#24201F"/>
<path d="M326.669 14.286C321.647 14.286 318.785 17.31 317.435 20.874V14.934H310.739V44.04H317.489V27.138C317.489 21.576 319.865 19.092 323.645 19.092C327.479 19.092 329.801 21.522 329.801 27.03V44.04H336.551V25.734C336.551 19.254 333.365 14.286 326.669 14.286Z" fill="#24201F"/>
<defs>
<clipPath id="clip0_509_29">
<rect width="57" height="57" fill="white"/>
</clipPath>
</defs>
</svg>